g Curve
v -7.741514E-05 0.0001158724 0
v 2.717856E-05 0.0001366683 0
v -2.717856E-05 0.0001366683 0
v 7.744336E-05 0.0001158724 0
v -2.246535E-05 0.0001129379 0
v -0.0001158828 7.741289E-05 0
v 2.246535E-05 0.0001129379 0
v 0.0001158828 7.741289E-05 0
v -6.398109E-05 9.572563E-05 0
v 6.398109E-05 9.572563E-05 0
v -9.575996E-05 6.398168E-05 0
v 9.575996E-05 6.398168E-05 0
v -0.000136683 2.718692E-05 0
v 0.000136683 2.718692E-05 0
v -0.0001129476 2.247471E-05 0
v 0.0001129476 2.247471E-05 0
v -0.000136683 -2.718692E-05 0
v 0.000136683 -2.718692E-05 0
v -0.0001129476 -2.244649E-05 0
v 0.0001129476 -2.244649E-05 0
v -9.575996E-05 -6.395347E-05 0
v 9.575996E-05 -6.395347E-05 0
v -0.0001158828 -7.741289E-05 0
v 0.0001158828 -7.741289E-05 0
v -6.398109E-05 -9.572563E-05 0
v 6.398109E-05 -9.572563E-05 0
v -7.741514E-05 -0.0001158442 0
v 7.744336E-05 -0.0001158442 0
v -2.246535E-05 -0.0001129097 0
v 2.246535E-05 -0.0001129097 0
v -2.717856E-05 -0.0001366683 0
v 2.717856E-05 -0.0001366683 0
v -2.246535E-05 0.0001129379 0
v -2.246535E-05 0.0001129379 1.529664E-05
v 2.246535E-05 0.0001129379 1.529664E-05
v 2.246535E-05 0.0001129379 0
v -2.717856E-05 0.0001366683 0
v -2.717856E-05 0.0001366683 1.529664E-05
v -7.741514E-05 0.0001158724 1.529664E-05
v -7.741514E-05 0.0001158724 0
v 0.000136683 -2.718692E-05 0
v 0.000136683 -2.718692E-05 1.529664E-05
v 0.000136683 2.718692E-05 1.529664E-05
v 0.000136683 2.718692E-05 0
v -2.717856E-05 -0.0001366683 0
v -2.717856E-05 -0.0001366683 1.529664E-05
v 2.717856E-05 -0.0001366683 1.529664E-05
v 2.717856E-05 -0.0001366683 0
v -7.741514E-05 -0.0001158442 0
v -7.741514E-05 -0.0001158442 1.529664E-05
v -2.717856E-05 -0.0001366683 1.529664E-05
v -2.717856E-05 -0.0001366683 0
v -0.000136683 -2.718692E-05 0
v -0.000136683 -2.718692E-05 1.529664E-05
v -0.0001158828 -7.741289E-05 1.529664E-05
v -0.0001158828 -7.741289E-05 0
v -0.0001129476 2.247471E-05 0
v -0.0001129476 2.247471E-05 1.529664E-05
v -9.575996E-05 6.398168E-05 1.529664E-05
v -9.575996E-05 6.398168E-05 0
v -0.0001158828 7.741289E-05 0
v -0.0001158828 7.741289E-05 1.529664E-05
v -0.000136683 2.718692E-05 1.529664E-05
v -0.000136683 2.718692E-05 0
v -7.741514E-05 0.0001158724 0
v -7.741514E-05 0.0001158724 1.529664E-05
v -0.0001158828 7.741289E-05 1.529664E-05
v -0.0001158828 7.741289E-05 0
v -9.575996E-05 -6.395347E-05 0
v -9.575996E-05 -6.395347E-05 1.529664E-05
v -0.0001129476 -2.244649E-05 1.529664E-05
v -0.0001129476 -2.244649E-05 0
v 7.744336E-05 0.0001158724 0
v 7.744336E-05 0.0001158724 1.529664E-05
v 2.717856E-05 0.0001366683 1.529664E-05
v 2.717856E-05 0.0001366683 0
v -6.398109E-05 9.572563E-05 0
v -6.398109E-05 9.572563E-05 1.529664E-05
v -2.246535E-05 0.0001129379 1.529664E-05
v -2.246535E-05 0.0001129379 0
v 0.0001158828 7.741289E-05 0
v 0.0001158828 7.741289E-05 1.529664E-05
v 7.744336E-05 0.0001158724 1.529664E-05
v 7.744336E-05 0.0001158724 0
v -9.575996E-05 6.398168E-05 0
v -9.575996E-05 6.398168E-05 1.529664E-05
v -6.398109E-05 9.572563E-05 1.529664E-05
v -6.398109E-05 9.572563E-05 0
v -0.000136683 2.718692E-05 0
v -0.000136683 2.718692E-05 1.529664E-05
v -0.000136683 -2.718692E-05 1.529664E-05
v -0.000136683 -2.718692E-05 0
v 9.575996E-05 6.398168E-05 0
v 9.575996E-05 6.398168E-05 1.529664E-05
v 0.0001129476 2.247471E-05 1.529664E-05
v 0.0001129476 2.247471E-05 0
v 2.246535E-05 -0.0001129097 0
v 2.246535E-05 -0.0001129097 1.529664E-05
v -2.246535E-05 -0.0001129097 1.529664E-05
v -2.246535E-05 -0.0001129097 0
v 2.717856E-05 0.0001366683 0
v 2.717856E-05 0.0001366683 1.529664E-05
v -2.717856E-05 0.0001366683 1.529664E-05
v -2.717856E-05 0.0001366683 0
v 0.0001129476 2.247471E-05 0
v 0.0001129476 2.247471E-05 1.529664E-05
v 0.0001129476 -2.244649E-05 1.529664E-05
v 0.0001129476 -2.244649E-05 0
v 6.398109E-05 -9.572563E-05 0
v 6.398109E-05 -9.572563E-05 1.529664E-05
v 2.246535E-05 -0.0001129097 1.529664E-05
v 2.246535E-05 -0.0001129097 0
v -6.398109E-05 -9.572563E-05 0
v -6.398109E-05 -9.572563E-05 1.529664E-05
v -9.575996E-05 -6.395347E-05 1.529664E-05
v -9.575996E-05 -6.395347E-05 0
v 2.717856E-05 -0.0001366683 0
v 2.717856E-05 -0.0001366683 1.529664E-05
v 7.744336E-05 -0.0001158442 1.529664E-05
v 7.744336E-05 -0.0001158442 0
v 7.744336E-05 -0.0001158442 0
v 7.744336E-05 -0.0001158442 1.529664E-05
v 0.0001158828 -7.741289E-05 1.529664E-05
v 0.0001158828 -7.741289E-05 0
v 0.000136683 2.718692E-05 0
v 0.000136683 2.718692E-05 1.529664E-05
v 0.0001158828 7.741289E-05 1.529664E-05
v 0.0001158828 7.741289E-05 0
v 9.575996E-05 -6.395347E-05 0
v 9.575996E-05 -6.395347E-05 1.529664E-05
v 6.398109E-05 -9.572563E-05 1.529664E-05
v 6.398109E-05 -9.572563E-05 0
v 0.0001129476 -2.244649E-05 0
v 0.0001129476 -2.244649E-05 1.529664E-05
v 9.575996E-05 -6.395347E-05 1.529664E-05
v 9.575996E-05 -6.395347E-05 0
v -2.246535E-05 -0.0001129097 0
v -2.246535E-05 -0.0001129097 1.529664E-05
v -6.398109E-05 -9.572563E-05 1.529664E-05
v -6.398109E-05 -9.572563E-05 0
v -0.0001129476 -2.244649E-05 0
v -0.0001129476 -2.244649E-05 1.529664E-05
v -0.0001129476 2.247471E-05 1.529664E-05
v -0.0001129476 2.247471E-05 0
v 6.398109E-05 9.572563E-05 0
v 6.398109E-05 9.572563E-05 1.529664E-05
v 9.575996E-05 6.398168E-05 1.529664E-05
v 9.575996E-05 6.398168E-05 0
v 0.0001158828 -7.741289E-05 0
v 0.0001158828 -7.741289E-05 1.529664E-05
v 0.000136683 -2.718692E-05 1.529664E-05
v 0.000136683 -2.718692E-05 0
v -0.0001158828 -7.741289E-05 0
v -0.0001158828 -7.741289E-05 1.529664E-05
v -7.741514E-05 -0.0001158442 1.529664E-05
v -7.741514E-05 -0.0001158442 0
v 2.246535E-05 0.0001129379 0
v 2.246535E-05 0.0001129379 1.529664E-05
v 6.398109E-05 9.572563E-05 1.529664E-05
v 6.398109E-05 9.572563E-05 0
v -7.741514E-05 0.0001158724 1.529664E-05
v -2.717856E-05 0.0001366683 1.529664E-05
v 2.717856E-05 0.0001366683 1.529664E-05
v 7.744336E-05 0.0001158724 1.529664E-05
v -2.246535E-05 0.0001129379 1.529664E-05
v -0.0001158828 7.741289E-05 1.529664E-05
v 2.246535E-05 0.0001129379 1.529664E-05
v 0.0001158828 7.741289E-05 1.529664E-05
v -6.398109E-05 9.572563E-05 1.529664E-05
v 6.398109E-05 9.572563E-05 1.529664E-05
v -9.575996E-05 6.398168E-05 1.529664E-05
v 9.575996E-05 6.398168E-05 1.529664E-05
v -0.000136683 2.718692E-05 1.529664E-05
v 0.000136683 2.718692E-05 1.529664E-05
v -0.0001129476 2.247471E-05 1.529664E-05
v 0.0001129476 2.247471E-05 1.529664E-05
v -0.000136683 -2.718692E-05 1.529664E-05
v 0.000136683 -2.718692E-05 1.529664E-05
v -0.0001129476 -2.244649E-05 1.529664E-05
v 0.0001129476 -2.244649E-05 1.529664E-05
v -9.575996E-05 -6.395347E-05 1.529664E-05
v 9.575996E-05 -6.395347E-05 1.529664E-05
v -0.0001158828 -7.741289E-05 1.529664E-05
v 0.0001158828 -7.741289E-05 1.529664E-05
v -6.398109E-05 -9.572563E-05 1.529664E-05
v 6.398109E-05 -9.572563E-05 1.529664E-05
v -7.741514E-05 -0.0001158442 1.529664E-05
v 7.744336E-05 -0.0001158442 1.529664E-05
v -2.246535E-05 -0.0001129097 1.529664E-05
v 2.246535E-05 -0.0001129097 1.529664E-05
v -2.717856E-05 -0.0001366683 1.529664E-05
v 2.717856E-05 -0.0001366683 1.529664E-05
vn 0 0 -1
vn 0 0 -1
vn 0 0 -1
vn 0 0 -1
vn 0 0 -1
vn 0 0 -1
vn 0 0 -1
vn 0 0 -1
vn 0 0 -1
vn 0 0 -1
vn 0 0 -1
vn 0 0 -1
vn 0 0 -1
vn 0 0 -1
vn 0 0 -1
vn 0 0 -1
vn 0 0 -1
vn 0 0 -1
vn 0 0 -1
vn 0 0 -1
vn 0 0 -1
vn 0 0 -1
vn 0 0 -1
vn 0 0 -1
vn 0 0 -1
vn 0 0 -1
vn 0 0 -1
vn 0 0 -1
vn 0 0 -1
vn 0 0 -1
vn 0 0 -1
vn 0 0 -1
vn 0 -1 0
vn 0 -1 0
vn 0 -1 0
vn 0 -1 0
vn -0.3824816 0.9239631 0
vn -0.3824816 0.9239631 0
vn -0.3824816 0.9239631 0
vn -0.3824816 0.9239631 0
vn 1 0 0
vn 1 0 0
vn 1 0 0
vn 1 0 0
vn 0 -1 0
vn 0 -1 0
vn 0 -1 0
vn 0 -1 0
vn -0.3829244 -0.9237797 0
vn -0.3829244 -0.9237797 0
vn -0.3829244 -0.9237797 0
vn -0.3829244 -0.9237797 0
vn -0.9239061 -0.3826193 0
vn -0.9239061 -0.3826193 0
vn -0.9239061 -0.3826193 0
vn -0.9239061 -0.3826193 0
vn 0.9239194 -0.3825873 0
vn 0.9239194 -0.3825873 0
vn 0.9239194 -0.3825873 0
vn 0.9239194 -0.3825873 0
vn -0.9239061 0.3826193 0
vn -0.9239061 0.3826193 0
vn -0.9239061 0.3826193 0
vn -0.9239061 0.3826193 0
vn -0.707032 0.7071816 0
vn -0.707032 0.7071816 0
vn -0.707032 0.7071816 0
vn -0.707032 0.7071816 0
vn 0.9239194 0.3825872 0
vn 0.9239194 0.3825872 0
vn 0.9239194 0.3825872 0
vn 0.9239194 0.3825872 0
vn 0.3822983 0.924039 0
vn 0.3822983 0.924039 0
vn 0.3822983 0.924039 0
vn 0.3822983 0.924039 0
vn 0.3829853 -0.9237545 0
vn 0.3829853 -0.9237545 0
vn 0.3829853 -0.9237545 0
vn 0.3829853 -0.9237545 0
vn 0.7072915 0.706922 0
vn 0.7072915 0.706922 0
vn 0.7072915 0.706922 0
vn 0.7072915 0.706922 0
vn 0.7067179 -0.7074955 0
vn 0.7067179 -0.7074955 0
vn 0.7067179 -0.7074955 0
vn 0.7067179 -0.7074955 0
vn -1 0 0
vn -1 0 0
vn -1 0 0
vn -1 0 0
vn -0.9239194 -0.3825873 0
vn -0.9239194 -0.3825873 0
vn -0.9239194 -0.3825873 0
vn -0.9239194 -0.3825873 0
vn 0 1 0
vn 0 1 0
vn 0 1 0
vn 0 1 0
vn 0 1 0
vn 0 1 0
vn 0 1 0
vn 0 1 0
vn -1 0 0
vn -1 0 0
vn -1 0 0
vn -1 0 0
vn -0.3824491 0.9239765 0
vn -0.3824491 0.9239765 0
vn -0.3824491 0.9239765 0
vn -0.3824491 0.9239765 0
vn 0.707032 0.7071815 0
vn 0.707032 0.7071815 0
vn 0.707032 0.7071815 0
vn 0.707032 0.7071815 0
vn 0.3827409 -0.9238557 0
vn 0.3827409 -0.9238557 0
vn 0.3827409 -0.9238557 0
vn 0.3827409 -0.9238557 0
vn 0.7070321 -0.7071815 0
vn 0.7070321 -0.7071815 0
vn 0.7070321 -0.7071815 0
vn 0.7070321 -0.7071815 0
vn 0.9239061 0.3826193 0
vn 0.9239061 0.3826193 0
vn 0.9239061 0.3826193 0
vn 0.9239061 0.3826193 0
vn -0.707032 0.7071815 0
vn -0.707032 0.7071815 0
vn -0.707032 0.7071815 0
vn -0.707032 0.7071815 0
vn -0.9239194 0.3825872 0
vn -0.9239194 0.3825872 0
vn -0.9239194 0.3825872 0
vn -0.9239194 0.3825872 0
vn 0.3824491 0.9239765 0
vn 0.3824491 0.9239765 0
vn 0.3824491 0.9239765 0
vn 0.3824491 0.9239765 0
vn 1 0 0
vn 1 0 0
vn 1 0 0
vn 1 0 0
vn -0.7067179 -0.7074955 0
vn -0.7067179 -0.7074955 0
vn -0.7067179 -0.7074955 0
vn -0.7067179 -0.7074955 0
vn 0.9239061 -0.3826193 0
vn 0.9239061 -0.3826193 0
vn 0.9239061 -0.3826193 0
vn 0.9239061 -0.3826193 0
vn -0.7067725 -0.7074409 0
vn -0.7067725 -0.7074409 0
vn -0.7067725 -0.7074409 0
vn -0.7067725 -0.7074409 0
vn -0.3829853 -0.9237545 0
vn -0.3829853 -0.9237545 0
vn -0.3829853 -0.9237545 0
vn -0.3829853 -0.9237545 0
vn 0 0 1
vn 0 0 1
vn 0 0 1
vn 0 0 1
vn 0 0 1
vn 0 0 1
vn 0 0 1
vn 0 0 1
vn 3.417112E-07 0 1
vn 0 0 1
vn 0 0 1
vn 0 0 1
vn 0 0 1
vn 0 0 1
vn 0 0 1
vn 0 0 1
vn 0 0 1
vn 0 0 1
vn 0 0 1
vn 0 0 1
vn 0 0 1
vn 0 0 1
vn 0 0 1
vn 0 0 1
vn 0 0 1
vn 0 0 1
vn 0 0 1
vn 0 0 1
vn 0 0 1
vn 0 0 1
vn 0 0 1
vn 0 0 1
g Curve_0
f 3/3/3 2/2/2 1/1/1
f 2/2/2 4/4/4 1/1/1
f 1/1/1 4/4/4 5/5/5
f 1/1/1 5/5/5 6/6/6
f 4/4/4 7/7/7 5/5/5
f 4/4/4 8/8/8 7/7/7
f 5/5/5 9/9/9 6/6/6
f 7/7/7 8/8/8 10/10/10
f 9/9/9 11/11/11 6/6/6
f 10/10/10 8/8/8 12/12/12
f 6/6/6 11/11/11 13/13/13
f 8/8/8 14/14/14 12/12/12
f 11/11/11 15/15/15 13/13/13
f 12/12/12 14/14/14 16/16/16
f 13/13/13 15/15/15 17/17/17
f 14/14/14 18/18/18 16/16/16
f 15/15/15 19/19/19 17/17/17
f 16/16/16 18/18/18 20/20/20
f 19/19/19 21/21/21 17/17/17
f 20/20/20 18/18/18 22/22/22
f 17/17/17 21/21/21 23/23/23
f 18/18/18 24/24/24 22/22/22
f 21/21/21 25/25/25 23/23/23
f 22/22/22 24/24/24 26/26/26
f 23/23/23 25/25/25 27/27/27
f 24/24/24 28/28/28 26/26/26
f 25/25/25 29/29/29 27/27/27
f 26/26/26 28/28/28 30/30/30
f 29/29/29 30/30/30 27/27/27
f 30/30/30 28/28/28 27/27/27
f 27/27/27 28/28/28 31/31/31
f 28/28/28 32/32/32 31/31/31
f 35/35/35 34/34/34 33/33/33
f 36/36/36 35/35/35 33/33/33
f 39/39/39 38/38/38 37/37/37
f 40/40/40 39/39/39 37/37/37
f 43/43/43 42/42/42 41/41/41
f 44/44/44 43/43/43 41/41/41
f 47/47/47 46/46/46 45/45/45
f 48/48/48 47/47/47 45/45/45
f 51/51/51 50/50/50 49/49/49
f 52/52/52 51/51/51 49/49/49
f 55/55/55 54/54/54 53/53/53
f 56/56/56 55/55/55 53/53/53
f 59/59/59 58/58/58 57/57/57
f 60/60/60 59/59/59 57/57/57
f 63/63/63 62/62/62 61/61/61
f 64/64/64 63/63/63 61/61/61
f 67/67/67 66/66/66 65/65/65
f 68/68/68 67/67/67 65/65/65
f 71/71/71 70/70/70 69/69/69
f 72/72/72 71/71/71 69/69/69
f 75/75/75 74/74/74 73/73/73
f 76/76/76 75/75/75 73/73/73
f 79/79/79 78/78/78 77/77/77
f 80/80/80 79/79/79 77/77/77
f 83/83/83 82/82/82 81/81/81
f 84/84/84 83/83/83 81/81/81
f 87/87/87 86/86/86 85/85/85
f 88/88/88 87/87/87 85/85/85
f 91/91/91 90/90/90 89/89/89
f 92/92/92 91/91/91 89/89/89
f 95/95/95 94/94/94 93/93/93
f 96/96/96 95/95/95 93/93/93
f 99/99/99 98/98/98 97/97/97
f 100/100/100 99/99/99 97/97/97
f 103/103/103 102/102/102 101/101/101
f 104/104/104 103/103/103 101/101/101
f 107/107/107 106/106/106 105/105/105
f 108/108/108 107/107/107 105/105/105
f 111/111/111 110/110/110 109/109/109
f 112/112/112 111/111/111 109/109/109
f 115/115/115 114/114/114 113/113/113
f 116/116/116 115/115/115 113/113/113
f 119/119/119 118/118/118 117/117/117
f 120/120/120 119/119/119 117/117/117
f 123/123/123 122/122/122 121/121/121
f 124/124/124 123/123/123 121/121/121
f 127/127/127 126/126/126 125/125/125
f 128/128/128 127/127/127 125/125/125
f 131/131/131 130/130/130 129/129/129
f 132/132/132 131/131/131 129/129/129
f 135/135/135 134/134/134 133/133/133
f 136/136/136 135/135/135 133/133/133
f 139/139/139 138/138/138 137/137/137
f 140/140/140 139/139/139 137/137/137
f 143/143/143 142/142/142 141/141/141
f 144/144/144 143/143/143 141/141/141
f 147/147/147 146/146/146 145/145/145
f 148/148/148 147/147/147 145/145/145
f 151/151/151 150/150/150 149/149/149
f 152/152/152 151/151/151 149/149/149
f 155/155/155 154/154/154 153/153/153
f 156/156/156 155/155/155 153/153/153
f 159/159/159 158/158/158 157/157/157
f 160/160/160 159/159/159 157/157/157
f 163/163/163 162/162/162 161/161/161
f 164/164/164 163/163/163 161/161/161
f 164/164/164 161/161/161 165/165/165
f 165/165/165 161/161/161 166/166/166
f 167/167/167 164/164/164 165/165/165
f 168/168/168 164/164/164 167/167/167
f 169/169/169 165/165/165 166/166/166
f 168/168/168 167/167/167 170/170/170
f 171/171/171 169/169/169 166/166/166
f 168/168/168 170/170/170 172/172/172
f 171/171/171 166/166/166 173/173/173
f 174/174/174 168/168/168 172/172/172
f 175/175/175 171/171/171 173/173/173
f 174/174/174 172/172/172 176/176/176
f 175/175/175 173/173/173 177/177/177
f 178/178/178 174/174/174 176/176/176
f 179/179/179 175/175/175 177/177/177
f 178/178/178 176/176/176 180/180/180
f 181/181/181 179/179/179 177/177/177
f 178/178/178 180/180/180 182/182/182
f 181/181/181 177/177/177 183/183/183
f 184/184/184 178/178/178 182/182/182
f 185/185/185 181/181/181 183/183/183
f 184/184/184 182/182/182 186/186/186
f 185/185/185 183/183/183 187/187/187
f 188/188/188 184/184/184 186/186/186
f 189/189/189 185/185/185 187/187/187
f 188/188/188 186/186/186 190/190/190
f 190/190/190 189/189/189 187/187/187
f 188/188/188 190/190/190 187/187/187
f 188/188/188 187/187/187 191/191/191
f 192/192/192 188/188/188 191/191/191
