g Gruppe#297_001
v 0.02489175 0.1226017 0.06407936
v -0.03220967 0.2880447 0.05836853
v -0.02358249 0.1180447 0.07336853
v -0.02358249 0.1180447 0.07336853
v -0.03220967 0.2880447 0.05836853
v -0.07068128 0.2880447 0.07336853
v 0.02934033 -0.0008406067 0.04405811
v -0.006273667 0.0037164 0.03691259
v -0.02358249 0.1180447 0.07336853
v 0.2236862 0.1180447 0.07336853
v 0.1644945 -0.0008406067 0.04405811
v 0.2088501 0.1134877 0.08265771
v 0.1498187 0.3780447 0.07336853
v 0.1348187 0.3780447 0.05836853
v 0.113789 0.2880447 0.05836853
v 0.1644945 0.008273377 0.02976707
v 0.01047615 -0.1918012 -0.03403082
v 0.0173432 -0.1963582 -0.0268853
v 0.02934033 0.008273377 0.02976707
v -0.09710783 -0.1963582 -0.0268853
v -0.07467099 -0.1918012 -0.03403082
v -0.006273667 0.0037164 0.03691259
v -0.07467099 -0.2009152 -0.01973978
v -0.09710783 -0.1963582 -0.0268853
v -0.03220967 0.2880447 0.08836854
v -0.1001813 0.3780447 0.07336853
v -0.0511716 0.3780447 0.08836854
v -0.03220967 0.2880447 0.08836854
v -0.07068128 0.2880447 0.07336853
v -0.1001813 0.3780447 0.07336853
v 0.1498187 0.3780447 0.07336853
v 0.1255637 0.2880447 0.07336853
v 0.1348187 0.3780447 0.08836854
v 0.1644945 -0.0008406067 0.04405811
v 0.1753947 0.0037164 0.03691259
v 0.01047615 -0.2009152 -0.01973978
v 0.2236862 0.1180447 0.07336853
v 0.2088501 0.1134877 0.08265771
v 0.1255637 0.2880447 0.07336853
v 0.1753947 0.0037164 0.03691259
v 0.1644945 0.008273377 0.02976707
v 0.0173432 -0.1963582 -0.0268853
v 0.2236862 0.1180447 0.07336853
v 0.2088501 0.1226017 0.06407936
v 0.1753947 0.0037164 0.03691259
v 0.1255637 0.2880447 0.07336853
v 0.2088501 0.1134877 0.08265771
v 0.113789 0.2880447 0.08836854
v 0.02934033 0.008273377 0.02976707
v -0.006273667 0.0037164 0.03691259
v -0.09710783 -0.1963582 -0.0268853
v 0.02489175 0.1134877 0.08265771
v -0.02358249 0.1180447 0.07336853
v -0.07068128 0.2880447 0.07336853
v 0.02934033 -0.0008406067 0.04405811
v -0.02358249 0.1180447 0.07336853
v 0.02489175 0.1134877 0.08265771
v 0.02489175 0.1226017 0.06407936
v -0.02358249 0.1180447 0.07336853
v -0.006273667 0.0037164 0.03691259
v 0.2088501 0.1226017 0.06407936
v 0.1644945 0.008273377 0.02976707
v 0.1753947 0.0037164 0.03691259
v 0.2236862 0.1180447 0.07336853
v 0.113789 0.2880447 0.05836853
v 0.2088501 0.1226017 0.06407936
v 0.2236862 0.1180447 0.07336853
v 0.1753947 0.0037164 0.03691259
v 0.1644945 -0.0008406067 0.04405811
v -0.1001813 0.3780447 0.07336853
v -0.0511716 0.3780447 0.05836853
v 0.1348187 0.3780447 0.05836853
v 0.1498187 0.3780447 0.07336853
v -0.0511716 0.3780447 0.08836854
v 0.1348187 0.3780447 0.08836854
v 0.02489175 0.1134877 0.08265771
v -0.07068128 0.2880447 0.07336853
v -0.03220967 0.2880447 0.08836854
v -0.0511716 0.3780447 0.05836853
v -0.1001813 0.3780447 0.07336853
v -0.07068128 0.2880447 0.07336853
v 0.1348187 0.3780447 0.08836854
v 0.1255637 0.2880447 0.07336853
v 0.113789 0.2880447 0.08836854
v 0.1255637 0.2880447 0.07336853
v 0.113789 0.2880447 0.05836853
v 0.2236862 0.1180447 0.07336853
v 0.02934033 0.008273377 0.02976707
v 0.02489175 0.1226017 0.06407936
v -0.006273667 0.0037164 0.03691259
v 0.1753947 0.0037164 0.03691259
v 0.0173432 -0.1963582 -0.0268853
v 0.01047615 -0.2009152 -0.01973978
v 0.02934033 -0.0008406067 0.04405811
v -0.07467099 -0.2009152 -0.01973978
v -0.006273667 0.0037164 0.03691259
v -0.03220967 0.2880447 0.05836853
v -0.0511716 0.3780447 0.05836853
v -0.07068128 0.2880447 0.07336853
v 0.1498187 0.3780447 0.07336853
v 0.113789 0.2880447 0.05836853
v 0.1255637 0.2880447 0.07336853
v 0.2088501 0.1134877 0.08265771
v 0.02489175 0.1134877 0.08265771
v 0.113789 0.2880447 0.08836854
v 0.1348187 0.3780447 0.08836854
v -0.03220967 0.2880447 0.08836854
v -0.0511716 0.3780447 0.08836854
v 0.1348187 0.3780447 0.08836854
v 0.02489175 0.1134877 0.08265771
v -0.03220967 0.2880447 0.08836854
v 0.1348187 0.3780447 0.08836854
v 0.113789 0.2880447 0.08836854
v 0.02489175 0.1134877 0.08265771
v 0.1348187 0.3780447 0.05836853
v -0.0511716 0.3780447 0.05836853
v -0.03220967 0.2880447 0.05836853
v 0.1348187 0.3780447 0.05836853
v -0.03220967 0.2880447 0.05836853
v 0.02489175 0.1226017 0.06407936
v 0.1348187 0.3780447 0.05836853
v 0.02489175 0.1226017 0.06407936
v 0.113789 0.2880447 0.05836853
v 0.2088501 0.1226017 0.06407936
v 0.113789 0.2880447 0.05836853
v 0.02489175 0.1226017 0.06407936
v 0.2088501 0.1226017 0.06407936
v 0.02489175 0.1226017 0.06407936
v 0.02934033 0.008273377 0.02976707
v 0.1644945 0.008273377 0.02976707
v 0.02934033 -0.0008406067 0.04405811
v 0.02489175 0.1134877 0.08265771
v 0.2088501 0.1134877 0.08265771
v 0.1644945 -0.0008406067 0.04405811
v 0.01047615 -0.2009152 -0.01973978
v -0.07467099 -0.2009152 -0.01973978
v 0.02934033 -0.0008406067 0.04405811
v 0.1644945 -0.0008406067 0.04405811
v -0.0970528 -0.2313659 -0.02969558
v 0.01047615 -0.1918012 -0.03403082
v -0.07467099 -0.1918012 -0.03403082
v -0.1018921 -0.2288358 -0.04554095
v 0.02934033 0.008273377 0.02976707
v -0.07467099 -0.1918012 -0.03403082
v 0.01047615 -0.1918012 -0.03403082
v 0.1644945 0.008273377 0.02976707
v -0.0970528 -0.2313659 -0.02969558
v -0.1186058 -0.2366009 -0.03733633
v -0.09710783 -0.1963582 -0.0268853
v -0.07467099 -0.2009152 -0.01973978
v -0.09710783 -0.1963582 -0.0268853
v -0.124316 -0.2378284 -0.04010893
v -0.1066207 -0.2313659 -0.04399757
v -0.07467099 -0.1918012 -0.03403082
v -0.07467099 -0.1918012 -0.03403082
v -0.1066207 -0.2313659 -0.04399757
v -0.1018921 -0.2288358 -0.04554095
v -0.1783681 -0.3202139 -0.06637923
v -0.2182571 -0.3780447 -0.07836484
v -0.2236862 -0.3734877 -0.0833667
v -0.1976539 -0.3780447 -0.07836484
v -0.1959923 -0.3734877 -0.0833667
v -0.2182571 -0.3689307 -0.08836856
v -0.165707 -0.3156569 -0.07252438
v -0.1976539 -0.3689307 -0.08836856
v -0.1137834 -0.3202139 -0.06637923
v -0.1176584 -0.3247709 -0.06023409
v 0.0173432 -0.1963582 -0.0268853
v 0.01047615 -0.2009152 -0.01973978
v 0.01047615 -0.1918012 -0.03403082
v -0.1066207 -0.2313659 -0.04399757
v -0.124316 -0.2378284 -0.04010893
v -0.1018921 -0.2288358 -0.04554095
v -0.1176584 -0.3156569 -0.07252438
v -0.165707 -0.3247709 -0.06023409
v -0.1186058 -0.2366009 -0.03733633
v -0.0970528 -0.2313659 -0.02969558
v -0.09710783 -0.1963582 -0.0268853
vt -0.3419071 -0.4537354
vt -0.5147364 -0.4819246
vt -0.3607321 -0.4078832
vt -0.4437614 -0.3008291
vt -0.6098935 -0.3408235
vt -0.6201652 -0.3008291
vt -0.01764168 0.4260577
vt -0.04952823 0.4080735
vt -0.1287797 0.4998275
vt 0.6822567 -0.008972074
vt 0.5523686 -0.0492902
vt 0.6694546 0.003805706
vt 0.8405496 0.1413186
vt 0.8371366 0.1203818
vt 0.7447124 0.1203818
vt 0.5185059 0.1427434
vt 0.2764502 0.04666692
vt 0.2746652 0.05742772
vt -0.4504241 0.1166676
vt -0.224296 0.01697431
vt -0.2447196 0.004400069
vt -0.2755597 0.3320684
vt -0.1176 0.1745549
vt -0.1310364 0.1546878
vt -0.6317065 0.322738
vt -0.7337863 0.27249
vt -0.7236823 0.322738
vt -0.5921562 0.377374
vt -0.604139 0.3378585
vt -0.6988505 0.3378585
vt 0.8463786 -0.09946553
vt 0.7531676 -0.09946553
vt 0.8424754 -0.07861452
vt 0.5549662 -0.003003051
vt 0.5659898 -0.01131662
vt 0.3053423 -0.07722969
vt 0.2231878 -0.5421073
vt 0.2266575 -0.5243556
vt 0.4194733 -0.5421073
vt 0.4870006 0.2351277
vt 0.4887532 0.2214323
vt 0.2543457 0.1128496
vt 0.4809481 0.4159136
vt 0.4866038 0.3987328
vt 0.3705593 0.3484867
vt 0.4479702 -0.3455187
vt 0.2546702 -0.334197
vt 0.4533934 -0.3272367
vt -0.4241309 0.1848689
vt -0.3911308 0.2007174
vt -0.2113305 0.05921583
vt -0.4264275 0.3733415
vt -0.4437614 0.3269051
vt -0.6201652 0.3269051
vt -0.003336245 0.4297496
vt -0.1123656 0.5066016
vt -0.06919646 0.5309579
vt -0.5135939 0.2489342
vt -0.4723171 0.2763757
vt -0.4166285 0.1686799
vt 0.4942656 0.3866554
vt 0.3827293 0.3252113
vt 0.3775422 0.338007
vt 0.2471432 0.4958304
vt 0.4487927 0.4725957
vt 0.2581035 0.4814416
vt 0.6813145 -0.01796136
vt 0.5609776 -0.06540731
vt 0.5507721 -0.05610771
vt -0.1235049 0.015
vt -0.1725146 -3.38396E-17
vt -0.358505 -3.38396E-17
vt -0.3735049 0.015
vt -0.1725146 0.03
vt -0.358505 0.03
vt -0.3784633 0.4004315
vt -0.576248 0.3765178
vt -0.5616223 0.4151332
vt -0.6835853 -0.3860781
vt -0.6988505 -0.3371504
vt -0.604139 -0.3371504
vt 0.8371366 -0.08095605
vt 0.7473915 -0.09983635
vt 0.7447124 -0.08095605
vt 0.4194733 0.3752501
vt 0.4253595 0.3571118
vt 0.2231878 0.3752501
vt -0.4529786 0.1343152
vt -0.521909 0.2318687
vt -0.4225243 0.1546307
vt 0.5656298 -0.02728955
vt 0.3112895 -0.09355613
vt 0.3032961 -0.08613411
vt -0.1286914 0.4292842
vt -0.04823282 0.2091825
vt -0.1557555 0.4046323
vt -0.6317065 -0.3054205
vt -0.7236823 -0.3054205
vt -0.6396379 -0.264897
vt 0.8463786 0.107835
vt 0.7501036 0.08901328
vt 0.7531676 0.107835
vt 0.4325363 0.5118805
vt 0.248578 0.5118805
vt 0.3374752 0.6865309
vt 0.358505 0.7759167
vt 0.1914766 0.6859167
vt 0.1725146 0.7759167
vt 0.683662 0.5137011
vt 0.4613963 0.332856
vt 0.4939293 0.5137011
vt -0.8371366 0.1749159
vt -0.7447124 0.1749159
vt -0.5545068 0.1277213
vt -0.358505 0.7759167
vt -0.1725146 0.7759167
vt -0.1914766 0.6859167
vt 0.683662 -0.5127294
vt 0.4939293 -0.5127294
vt 0.4657196 -0.3399035
vt -0.8371366 -0.1713899
vt -0.5633817 -0.1221361
vt -0.7447124 -0.1713899
vt 0.4325363 -0.5199669
vt 0.3374752 -0.6855084
vt 0.248578 -0.5199669
vt -0.4325363 0.5001484
vt -0.248578 0.5001484
vt -0.2530266 0.3807822
vt -0.3881808 0.3807822
vt 0.2530266 0.3715928
vt 0.248578 0.4922613
vt 0.4325363 0.4922613
vt 0.3881808 0.3715928
vt 0.2341624 0.1639186
vt 0.1490152 0.1639186
vt 0.2530266 0.3739186
vt 0.3881808 0.3739186
vt 0.1266334 0.1308953
vt -0.2341624 0.1693626
vt -0.1490152 0.1693626
vt -0.1217941 0.1305805
vt -0.2530266 0.3782602
vt -0.1490152 0.1682602
vt -0.2341624 0.1682602
vt -0.3881808 0.3782602
vt -0.1321588 0.1246297
vt -0.1321252 0.1011709
vt -0.1662029 0.1332579
vt -0.1565104 0.1551962
vt -0.220824 0.01960486
vt -0.1744419 -0.002386687
vt -0.1925578 -0.008853664
vt -0.2416572 0.007721515
vt -0.2484568 -0.0370033
vt -0.1982654 -0.04989933
vt -0.2034764 -0.05189634
vt 0 0
vt 0 0
vt 0 0
vt 0 0
vt 0 0
vt 0 0
vt 0 0
vt 0 0
vt 0 0
vt 0 0
vt 0 0
vt 0 0
vt 0 0
vt 0 0
vt 0 0
vt 0 0
vt 0 0
vt 0 0
vt 0 0
vt 0 0
vt 0 0
vn -0.09098907 0.1092269 -0.9898437
vn -0.1781176 -0.05551938 -0.9824417
vn -0.9676418 -0.2399805 0.07796627
vn -0.9676418 -0.2399805 0.07796627
vn -0.1781176 -0.05551938 -0.9824417
vn -0.9563763 -0.2921002 -0.004671614
vn -0.09326241 -0.2941387 0.9512017
vn -0.9829804 0.1752756 0.05502799
vn -0.9676418 -0.2399805 0.07796627
vn 0.9953855 0.06300635 0.07237276
vn 0.3505045 -0.4881864 0.7992626
vn 0.3531975 -0.1516148 0.9231817
vn 0.8747929 0.4844624 0.005782574
vn 0.3435833 0.5900141 -0.7306393
vn 0.2866341 0.04499027 -0.9569831
vn 0.303083 0.108129 -0.9468098
vn 0.3359087 -0.01299486 -0.9418049
vn 0.7641988 -0.5686201 -0.3044196
vn -0.09754152 0.3091094 -0.9460112
vn -0.8648719 0.4733406 0.1671686
vn -0.1738744 0.3845136 -0.9065964
vn -0.9829804 0.1752756 0.05502799
vn -0.1542996 -0.2247715 0.9621171
vn -0.8648719 0.4733406 0.1671686
vn -0.1798686 -0.07473464 0.9808476
vn -0.8979933 0.4399541 -0.006957811
vn -0.125108 0.6622581 0.7387571
vn -0.1798686 -0.07473464 0.9808476
vn -0.9563763 -0.2921002 -0.004671614
vn -0.8979933 0.4399541 -0.006957811
vn 0.8747929 0.4844624 0.005782574
vn 0.988689 0.1493459 0.01378006
vn 0.3507477 0.5844138 0.7317353
vn 0.3505045 -0.4881864 0.7992626
vn 0.8864693 -0.4244452 -0.1844407
vn 0.4149715 -0.6119886 0.6732522
vn 0.9953855 0.06300635 0.07237276
vn 0.3531975 -0.1516148 0.9231817
vn 0.988689 0.1493459 0.01378006
vn 0.8864693 -0.4244452 -0.1844407
vn 0.303083 0.108129 -0.9468098
vn 0.7641988 -0.5686201 -0.3044196
vn 0.9953855 0.06300635 0.07237276
vn 0.3766285 0.1786971 -0.9089655
vn 0.8864693 -0.4244452 -0.1844407
vn 0.988689 0.1493459 0.01378006
vn 0.3531975 -0.1516148 0.9231817
vn 0.2942856 0.04591332 0.954614
vn -0.09754152 0.3091094 -0.9460112
vn -0.9829804 0.1752756 0.05502799
vn -0.8648719 0.4733406 0.1671686
vn -0.09749208 -0.1874333 0.9774273
vn -0.9676418 -0.2399805 0.07796627
vn -0.9563763 -0.2921002 -0.004671614
vn -0.09326241 -0.2941387 0.9512017
vn -0.9676418 -0.2399805 0.07796627
vn -0.09749208 -0.1874333 0.9774273
vn -0.09098907 0.1092269 -0.9898437
vn -0.9676418 -0.2399805 0.07796627
vn -0.9829804 0.1752756 0.05502799
vn 0.3766285 0.1786971 -0.9089655
vn 0.303083 0.108129 -0.9468098
vn 0.8864693 -0.4244452 -0.1844407
vn 0.9953855 0.06300635 0.07237276
vn 0.2866341 0.04499027 -0.9569831
vn 0.3766285 0.1786971 -0.9089655
vn 0.9953855 0.06300635 0.07237276
vn 0.8864693 -0.4244452 -0.1844407
vn 0.3505045 -0.4881864 0.7992626
vn -0.8979933 0.4399541 -0.006957811
vn -0.1338699 0.6561401 -0.7426702
vn 0.3435833 0.5900141 -0.7306393
vn 0.8747929 0.4844624 0.005782574
vn -0.125108 0.6622581 0.7387571
vn 0.3507477 0.5844138 0.7317353
vn -0.09749208 -0.1874333 0.9774273
vn -0.9563763 -0.2921002 -0.004671614
vn -0.1798686 -0.07473464 0.9808476
vn -0.1338699 0.6561401 -0.7426702
vn -0.8979933 0.4399541 -0.006957811
vn -0.9563763 -0.2921002 -0.004671614
vn 0.3507477 0.5844138 0.7317353
vn 0.988689 0.1493459 0.01378006
vn 0.2942856 0.04591332 0.954614
vn 0.988689 0.1493459 0.01378006
vn 0.2866341 0.04499027 -0.9569831
vn 0.9953855 0.06300635 0.07237276
vn -0.09754152 0.3091094 -0.9460112
vn -0.09098907 0.1092269 -0.9898437
vn -0.9829804 0.1752756 0.05502799
vn 0.8864693 -0.4244452 -0.1844407
vn 0.7641988 -0.5686201 -0.3044196
vn 0.4149715 -0.6119886 0.6732522
vn -0.09326241 -0.2941387 0.9512017
vn -0.1542996 -0.2247715 0.9621171
vn -0.9829804 0.1752756 0.05502799
vn -0.1781176 -0.05551938 -0.9824417
vn -0.1338699 0.6561401 -0.7426702
vn -0.9563763 -0.2921002 -0.004671614
vn 0.8747929 0.4844624 0.005782574
vn 0.2866341 0.04499027 -0.9569831
vn 0.988689 0.1493459 0.01378006
vn 0.3531975 -0.1516148 0.9231817
vn -0.09749208 -0.1874333 0.9774273
vn 0.2942856 0.04591332 0.954614
vn 0.3507477 0.5844138 0.7317353
vn -0.1798686 -0.07473464 0.9808476
vn -0.125108 0.6622581 0.7387571
vn 0.3507477 0.5844138 0.7317353
vn -0.09749208 -0.1874333 0.9774273
vn -0.1798686 -0.07473464 0.9808476
vn 0.3507477 0.5844138 0.7317353
vn 0.2942856 0.04591332 0.954614
vn -0.09749208 -0.1874333 0.9774273
vn 0.3435833 0.5900141 -0.7306393
vn -0.1338699 0.6561401 -0.7426702
vn -0.1781176 -0.05551938 -0.9824417
vn 0.3435833 0.5900141 -0.7306393
vn -0.1781176 -0.05551938 -0.9824417
vn -0.09098907 0.1092269 -0.9898437
vn 0.3435833 0.5900141 -0.7306393
vn -0.09098907 0.1092269 -0.9898437
vn 0.2866341 0.04499027 -0.9569831
vn 0.3766285 0.1786971 -0.9089655
vn 0.2866341 0.04499027 -0.9569831
vn -0.09098907 0.1092269 -0.9898437
vn 0.3766285 0.1786971 -0.9089655
vn -0.09098907 0.1092269 -0.9898437
vn -0.09754152 0.3091094 -0.9460112
vn 0.303083 0.108129 -0.9468098
vn -0.09326241 -0.2941387 0.9512017
vn -0.09749208 -0.1874333 0.9774273
vn 0.3531975 -0.1516148 0.9231817
vn 0.3505045 -0.4881864 0.7992626
vn 0.4149715 -0.6119886 0.6732522
vn -0.1542996 -0.2247715 0.9621171
vn -0.09326241 -0.2941387 0.9512017
vn 0.3505045 -0.4881864 0.7992626
vn -0.2522679 -0.1281649 0.9591323
vn 0.3359087 -0.01299486 -0.9418049
vn -0.1738744 0.3845136 -0.9065964
vn -0.4262621 0.5390783 -0.7264263
vn -0.09754152 0.3091094 -0.9460112
vn -0.1738744 0.3845136 -0.9065964
vn 0.3359087 -0.01299486 -0.9418049
vn 0.303083 0.108129 -0.9468098
vn -0.2522679 -0.1281649 0.9591323
vn -0.3777345 -0.03846347 0.9251147
vn -0.8648719 0.4733406 0.1671686
vn -0.1542996 -0.2247715 0.9621171
vn -0.8648719 0.4733406 0.1671686
vn -0.8466552 0.5211127 0.1077795
vn -0.3875628 0.5069262 -0.7699487
vn -0.1738744 0.3845136 -0.9065964
vn -0.1738744 0.3845136 -0.9065964
vn -0.3875628 0.5069262 -0.7699487
vn -0.4262621 0.5390783 -0.7264263
vn -0.7873019 0.5643908 0.2482313
vn -0.4888866 -0.7947524 0.3596645
vn -0.9514588 -0.2701881 -0.1473927
vn 0.2080972 -0.9540541 0.2155836
vn 0.3203304 -0.7123756 -0.6244272
vn -0.5340117 0.07405432 -0.8422276
vn -0.2662632 0.4632428 -0.845287
vn 0.1593641 -0.2997451 -0.9406146
vn 0.6385365 -0.6363193 -0.4328612
vn 0.4301049 -0.7514801 0.5002874
vn 0.7641988 -0.5686201 -0.3044196
vn 0.4149715 -0.6119886 0.6732522
vn 0.3359087 -0.01299486 -0.9418049
vn -0.4838466 0.560113 -0.6724328
vn -0.8466552 0.5211127 0.1077795
vn -0.1147871 0.3707958 -0.9215934
vn 0.3234345 -0.1222324 -0.9383226
vn -0.2096678 -0.1581333 0.9649007
vn -0.3777345 -0.03846347 0.9251147
vn -0.06855721 -0.2641469 0.9620428
vn -0.8648719 0.4733406 0.1671686
g Gruppe#297_001_0
f 3/3/3 2/2/2 1/1/1
f 6/6/6 5/5/5 4/4/4
f 9/9/9 8/8/8 7/7/7
f 12/12/12 11/11/11 10/10/10
f 15/15/15 14/14/14 13/13/13
f 18/18/18 17/17/17 16/16/16
f 21/21/21 20/20/20 19/19/19
f 24/24/24 23/23/23 22/22/22
f 27/27/27 26/26/26 25/25/25
f 30/30/30 29/29/29 28/28/28
f 33/33/33 32/32/32 31/31/31
f 36/36/36 35/35/35 34/34/34
f 39/39/39 38/38/38 37/37/37
f 42/42/42 41/41/41 40/40/40
f 45/45/45 44/44/44 43/43/43
f 48/48/48 47/47/47 46/46/46
f 51/51/51 50/50/50 49/49/49
f 54/54/54 53/53/53 52/52/52
f 57/57/57 56/56/56 55/55/55
f 60/60/60 59/59/59 58/58/58
f 63/63/63 62/62/62 61/61/61
f 66/66/66 65/65/65 64/64/64
f 69/69/69 68/68/68 67/67/67
f 72/72/72 71/71/71 70/70/70
f 70/70/70 73/73/73 72/72/72
f 70/70/70 74/74/74 73/73/73
f 74/74/74 75/75/75 73/73/73
f 78/78/78 77/77/77 76/76/76
f 81/81/81 80/80/80 79/79/79
f 84/84/84 83/83/83 82/82/82
f 87/87/87 86/86/86 85/85/85
f 90/90/90 89/89/89 88/88/88
f 93/93/93 92/92/92 91/91/91
f 96/96/96 95/95/95 94/94/94
f 99/99/99 98/98/98 97/97/97
f 102/102/102 101/101/101 100/100/100
f 105/105/105 104/104/104 103/103/103
f 108/108/108 107/107/107 106/106/106
f 111/111/111 110/110/110 109/109/109
f 114/114/114 113/113/113 112/112/112
f 117/117/117 116/116/116 115/115/115
f 120/120/120 119/119/119 118/118/118
f 123/123/123 122/122/122 121/121/121
f 126/126/126 125/125/125 124/124/124
f 129/129/129 128/128/128 127/127/127
f 127/127/127 130/130/130 129/129/129
f 133/133/133 132/132/132 131/131/131
f 131/131/131 134/134/134 133/133/133
f 137/137/137 136/136/136 135/135/135
f 135/135/135 138/138/138 137/137/137
f 136/136/136 139/139/139 135/135/135
f 142/142/142 141/141/141 140/140/140
f 145/145/145 144/144/144 143/143/143
f 143/143/143 146/146/146 145/145/145
f 149/149/149 148/148/148 147/147/147
f 147/147/147 150/150/150 149/149/149
f 153/153/153 152/152/152 151/151/151
f 151/151/151 154/154/154 153/153/153
f 157/157/157 156/156/156 155/155/155
g Gruppe#297_001_1
f 160/160/160 159/159/159 158/158/158
f 161/161/161 159/159/159 160/160/160
f 162/162/162 161/161/161 160/160/160
f 162/162/162 160/160/160 163/163/163
f 163/163/163 160/160/160 164/164/164
f 164/164/164 160/160/160 158/158/158
f 163/163/163 165/165/165 162/162/162
f 165/165/165 163/163/163 164/164/164
f 162/162/162 165/165/165 166/166/166
f 161/161/161 162/162/162 167/167/167
f 162/162/162 166/166/166 167/167/167
f 167/167/167 166/166/166 168/168/168
f 167/167/167 168/168/168 169/169/169
f 166/166/166 170/170/170 168/168/168
f 164/164/164 158/158/158 171/171/171
f 158/158/158 172/172/172 171/171/171
f 171/171/171 173/173/173 164/164/164
f 166/166/166 174/174/174 170/170/170
f 165/165/165 174/174/174 166/166/166
f 164/164/164 174/174/174 165/165/165
f 174/174/174 164/164/164 173/173/173
f 173/173/173 170/170/170 174/174/174
f 175/175/175 159/159/159 161/161/161
f 161/161/161 167/167/167 175/175/175
f 172/172/172 158/158/158 175/175/175
f 175/175/175 176/176/176 172/172/172
f 176/176/176 175/175/175 177/177/177
f 177/177/177 175/175/175 167/167/167
f 167/167/167 169/169/169 177/177/177
f 176/176/176 178/178/178 172/172/172
f 158/158/158 159/159/159 175/175/175
