g Cylinder
v 0.0001222185 -2.454309E-10 -0.01
v -0.001950907 -0.009807852 -0.01
v -0.001950907 -0.009807852 0.01
v 0.0001222185 -2.454309E-10 0.01
v -0.001950888 0.009807855 -0.01
v -0.001950888 0.009807855 0.01
v -0.001950907 -0.009807852 -0.01
v -0.003826839 -0.009238793 -0.01
v -0.003826839 -0.009238793 0.01
v -0.001950907 -0.009807852 0.01
v -0.005555707 -0.008314692 0.01
v -0.005555707 -0.008314692 -0.01
v -0.007071072 -0.007071063 0.01
v -0.007071072 -0.007071063 -0.01
v -0.0083147 -0.005555696 0.01
v -0.0083147 -0.005555696 -0.01
v -0.009238798 -0.003826827 0.01
v -0.009238798 -0.003826827 -0.01
v -0.009807854 -0.001950895 0.01
v -0.009807854 -0.001950895 -0.01
v -0.01 9.655992E-09 0.01
v -0.01 9.655992E-09 -0.01
v -0.00980785 0.001950913 0.01
v -0.00980785 0.001950913 -0.01
v -0.009238791 0.003826845 0.01
v -0.009238791 0.003826845 -0.01
v -0.00831469 0.005555713 0.01
v -0.00831469 0.005555713 -0.01
v -0.007071059 0.007071076 0.01
v -0.007071059 0.007071076 -0.01
v -0.005555691 0.008314704 0.01
v -0.005555691 0.008314704 -0.01
v -0.003826821 0.009238801 0.01
v -0.003826821 0.009238801 -0.01
v -0.001950888 0.009807855 0.01
v -0.001950888 0.009807855 -0.01
v -0.001950907 -0.009807852 -0.01
v 0.0001222185 -2.454309E-10 -0.01
v -0.001950888 0.009807855 -0.01
v -0.003826821 0.009238801 -0.01
v -0.003826839 -0.009238793 -0.01
v -0.005555691 0.008314704 -0.01
v -0.005555707 -0.008314692 -0.01
v -0.007071059 0.007071076 -0.01
v -0.007071072 -0.007071063 -0.01
v -0.00831469 0.005555713 -0.01
v -0.0083147 -0.005555696 -0.01
v -0.009238791 0.003826845 -0.01
v -0.009238798 -0.003826827 -0.01
v -0.00980785 0.001950913 -0.01
v -0.009807854 -0.001950895 -0.01
v -0.01 9.655992E-09 -0.01
v -0.001950888 0.009807855 0.01
v 0.0001222185 -2.454309E-10 0.01
v -0.001950907 -0.009807852 0.01
v -0.003826821 0.009238801 0.01
v -0.003826839 -0.009238793 0.01
v -0.005555691 0.008314704 0.01
v -0.005555707 -0.008314692 0.01
v -0.007071059 0.007071076 0.01
v -0.007071072 -0.007071063 0.01
v -0.00831469 0.005555713 0.01
v -0.0083147 -0.005555696 0.01
v -0.009238791 0.003826845 0.01
v -0.009238798 -0.003826827 0.01
v -0.00980785 0.001950913 0.01
v -0.009807854 -0.001950895 0.01
v -0.01 9.655992E-09 0.01
vn 1 0 0
vn 0.9783822 -0.2068046 0
vn 0.9783822 -0.2068046 0
vn 1 0 0
vn 0.9783826 0.2068028 0
vn 0.9783826 0.2068028 0
vn -0.2902852 -0.9569402 0
vn -0.3826838 -0.9238794 0
vn -0.3826838 -0.9238794 0
vn -0.2902852 -0.9569402 0
vn -0.5555706 -0.8314694 0
vn -0.5555706 -0.8314694 0
vn -0.7071072 -0.7071063 0
vn -0.7071072 -0.7071063 0
vn -0.83147 -0.5555696 0
vn -0.83147 -0.5555696 0
vn -0.9238799 -0.3826827 0
vn -0.9238799 -0.3826827 0
vn -0.9807854 -0.1950894 0
vn -0.9807854 -0.1950894 0
vn -1 0 0
vn -1 0 0
vn -0.9807851 0.1950914 0
vn -0.9807851 0.1950914 0
vn -0.9238791 0.3826845 0
vn -0.9238791 0.3826845 0
vn -0.8314689 0.5555712 0
vn -0.8314689 0.5555712 0
vn -0.7071059 0.7071077 0
vn -0.7071059 0.7071077 0
vn -0.5555692 0.8314703 0
vn -0.5555692 0.8314703 0
vn -0.3826821 0.9238801 0
vn -0.3826821 0.9238801 0
vn -0.2902831 0.9569408 0
vn -0.2902831 0.9569408 0
vn 0 0 -1
vn 0 0 -1
vn 0 0 -1
vn 0 0 -1
vn 0 0 -1
vn 0 0 -1
vn 0 0 -1
vn 0 0 -1
vn 0 0 -1
vn 0 0 -1
vn 0 0 -1
vn 0 0 -1
vn 0 0 -1
vn 0 0 -1
vn 0 0 -1
vn 0 0 -1
vn 0 0 1
vn 0 0 1
vn 0 0 1
vn 0 0 1
vn 0 0 1
vn 0 0 1
vn 0 0 1
vn 0 0 1
vn 0 0 1
vn 0 0 1
vn 0 0 1
vn 0 0 1
vn 0 0 1
vn 0 0 1
vn 0 0 1
vn 0 0 1
g Cylinder_0
f 3/3/3 2/2/2 1/1/1
f 4/4/4 3/3/3 1/1/1
f 4/4/4 1/1/1 5/5/5
f 6/6/6 4/4/4 5/5/5
f 9/9/9 8/8/8 7/7/7
f 10/10/10 9/9/9 7/7/7
f 9/9/9 11/11/11 8/8/8
f 11/11/11 12/12/12 8/8/8
f 11/11/11 13/13/13 12/12/12
f 13/13/13 14/14/14 12/12/12
f 13/13/13 15/15/15 14/14/14
f 15/15/15 16/16/16 14/14/14
f 15/15/15 17/17/17 16/16/16
f 17/17/17 18/18/18 16/16/16
f 17/17/17 19/19/19 18/18/18
f 19/19/19 20/20/20 18/18/18
f 19/19/19 21/21/21 20/20/20
f 21/21/21 22/22/22 20/20/20
f 21/21/21 23/23/23 22/22/22
f 23/23/23 24/24/24 22/22/22
f 23/23/23 25/25/25 24/24/24
f 25/25/25 26/26/26 24/24/24
f 25/25/25 27/27/27 26/26/26
f 27/27/27 28/28/28 26/26/26
f 27/27/27 29/29/29 28/28/28
f 29/29/29 30/30/30 28/28/28
f 29/29/29 31/31/31 30/30/30
f 31/31/31 32/32/32 30/30/30
f 31/31/31 33/33/33 32/32/32
f 33/33/33 34/34/34 32/32/32
f 33/33/33 35/35/35 34/34/34
f 35/35/35 36/36/36 34/34/34
f 39/39/39 38/38/38 37/37/37
f 37/37/37 40/40/40 39/39/39
f 37/37/37 41/41/41 40/40/40
f 41/41/41 42/42/42 40/40/40
f 41/41/41 43/43/43 42/42/42
f 43/43/43 44/44/44 42/42/42
f 43/43/43 45/45/45 44/44/44
f 45/45/45 46/46/46 44/44/44
f 45/45/45 47/47/47 46/46/46
f 47/47/47 48/48/48 46/46/46
f 47/47/47 49/49/49 48/48/48
f 49/49/49 50/50/50 48/48/48
f 49/49/49 51/51/51 50/50/50
f 51/51/51 52/52/52 50/50/50
f 55/55/55 54/54/54 53/53/53
f 53/53/53 56/56/56 55/55/55
f 56/56/56 57/57/57 55/55/55
f 56/56/56 58/58/58 57/57/57
f 58/58/58 59/59/59 57/57/57
f 58/58/58 60/60/60 59/59/59
f 60/60/60 61/61/61 59/59/59
f 60/60/60 62/62/62 61/61/61
f 62/62/62 63/63/63 61/61/61
f 62/62/62 64/64/64 63/63/63
f 64/64/64 65/65/65 63/63/63
f 64/64/64 66/66/66 65/65/65
f 66/66/66 67/67/67 65/65/65
f 66/66/66 68/68/68 67/67/67
